<svg xmlns="http://www.w3.org/2000/svg" viewBox="0 0 357.56 205.36"><defs><style>.cls-1{fill:#fff;}</style></defs><g id="Layer_2" data-name="Layer 2"><g id="Layer_1-2" data-name="Layer 1"><path class="cls-1" d="M130.61,62.5c8.15-12.21,16.18-24.22,24.21-36.24C160,18.5,165.13,10.72,170.35,3c2.68-4,4.17-4,6.92-.05,10.48,15,21,30,31.28,45.14,2.37,3.5,4.42,4.84,8.86,3.53,8.92-2.63,18.13-4.28,27.1-6.74,3.85-1.06,6-.26,8.32,3,23.82,34.31,47.85,68.48,71.65,102.81,2.36,3.41,4.77,4.87,8.92,4.63,6.31-.37,12.66-.14,19-.08,2.21,0,5.36-.71,5.16,2.72-.05,1-3.45,2.51-5.31,2.51q-86,.21-171.93.12H7.87a14.83,14.83,0,0,1-2,0C3.62,160.28,0,161.7,0,157.93s3.56-2.61,5.83-2.66c6.83-.12,13.67.17,20.48-.17A8.4,8.4,0,0,0,32,152.27c23.48-31.7,46.77-63.53,70.15-95.3,7.79-10.58,5.47-9.9,16.16-2.81C122.3,56.83,126.26,59.55,130.61,62.5Zm31.18-36.14c-7.09,10.42-13.86,21.07-21.37,31.18A41.28,41.28,0,0,0,132,80.47c-.08,1.32-.35,2.63-.54,4-2.07,14.22-4.13,28.44-6.35,43.72a13.19,13.19,0,0,0,1.5-1.93Q143.85,78.13,161,30a23.91,23.91,0,0,0,.71-3.79l.36-.15Zm43.13,41.07a6.21,6.21,0,0,0-1.59.93Q165,110.42,126.78,152.55a12.11,12.11,0,0,0-1.31,2.42h59.82c.48-1.63,1-3,1.3-4.47,3.88-17.18,7.81-34.35,11.6-51.55,2.32-10.52,4.43-21.08,6.63-31.62l.12-.16ZM174.55,8.72,126,144l1.09.6,80.22-88.83ZM316.73,155a16.33,16.33,0,0,0-1.47-1.57c-18.49-13.57-37-27.08-55.45-40.77-2.62-1.95-4.14-.65-6,.73Q232,129.17,210.17,145c-4.21,3.06-8.39,6.18-13.56,10ZM212.24,61.73c-6.81,30.06-13.4,59.14-20.31,89.67L253.14,107ZM42.18,147.92c1,.06,1.37.19,1.6.07,19-10.33,38-20.62,56.8-31.14,1.32-.74,2.29-3.1,2.43-4.79.8-10.27,1.32-20.57,1.93-30.86q.56-9.27,1.09-18.53l-1-.27Zm2,6.16.31.85h69.77c-3.49-11.26-6.86-22.12-10.37-33.47Zm210-94.36-1,.48c2,14.31,4,28.63,6.21,42.91.28,1.82,1.93,3.82,3.5,5,15.1,11.2,30.31,22.23,45.5,33.31,1.22.89,2.49,1.71,3.73,2.56l.48-.65ZM111.94,56.54c-.78,13.34-.79,25.54-2.38,37.54a90.54,90.54,0,0,0,6,46.34c.36.91.89,1.75,1.8,3.5,1.07-7.34,2-13.57,2.89-19.81,2.54-17.63,5.12-35.25,7.52-52.89.2-1.51-.29-3.84-1.33-4.66C122.11,63.22,117.48,60.31,111.94,56.54Zm140,40.86,1.09-.28c-2.22-15.44-4.44-30.87-6.75-47L215.94,57.5Z"/><path class="cls-1" d="M49,189.35a17.65,17.65,0,0,1-1.11,6.4,14.28,14.28,0,0,1-3.15,4.93,14,14,0,0,1-4.88,3.18,17,17,0,0,1-6.3,1.13H21.83V173.7H33.51a17,17,0,0,1,6.3,1.12A13.83,13.83,0,0,1,44.69,178,14.42,14.42,0,0,1,47.84,183,17.73,17.73,0,0,1,49,189.35Zm-4.35,0a15.79,15.79,0,0,0-.78-5.15,10.92,10.92,0,0,0-2.23-3.84A9.63,9.63,0,0,0,38.1,178a12.22,12.22,0,0,0-4.59-.83H26.07v24.44h7.44a12.22,12.22,0,0,0,4.59-.83,9.58,9.58,0,0,0,3.49-2.39,10.87,10.87,0,0,0,2.23-3.83A15.89,15.89,0,0,0,44.6,189.35Z"/><path class="cls-1" d="M96.18,201.54l0,3.45H76.88V173.7H96.16v3.45h-15v10.39H93.3v3.32H81.11v10.68Z"/><path class="cls-1" d="M176.79,177.26H166.66V205h-4.21V177.26H152.3V173.7h24.49Z"/><path class="cls-1" d="M230.77,189.35a18,18,0,0,1-1.11,6.45,14.64,14.64,0,0,1-3.15,5.06,14.07,14.07,0,0,1-4.88,3.29,17.63,17.63,0,0,1-12.58,0,14,14,0,0,1-4.87-3.29A14.64,14.64,0,0,1,201,195.8a19.29,19.29,0,0,1,0-12.9,14.78,14.78,0,0,1,3.15-5.07,13.92,13.92,0,0,1,4.87-3.3,17.35,17.35,0,0,1,12.58,0,14,14,0,0,1,4.88,3.3,14.78,14.78,0,0,1,3.15,5.07A18.12,18.12,0,0,1,230.77,189.35Zm-4.34,0a16,16,0,0,0-.79-5.17,11,11,0,0,0-2.23-3.88,9.59,9.59,0,0,0-3.49-2.43,12.74,12.74,0,0,0-9.15,0,9.63,9.63,0,0,0-3.5,2.43,10.82,10.82,0,0,0-2.24,3.88,17.31,17.31,0,0,0,0,10.34,10.73,10.73,0,0,0,2.24,3.86,9.49,9.49,0,0,0,3.5,2.42,12.74,12.74,0,0,0,9.15,0,9.45,9.45,0,0,0,3.49-2.42,10.86,10.86,0,0,0,2.23-3.86A16,16,0,0,0,226.43,189.35Z"/><path class="cls-1" d="M270.73,201.62a8.83,8.83,0,0,0,3.47-.65,7.32,7.32,0,0,0,2.59-1.84,8,8,0,0,0,1.62-2.81,11.16,11.16,0,0,0,.55-3.61v-19h4.22v19a14.21,14.21,0,0,1-.87,5,11.5,11.5,0,0,1-2.46,4,11.3,11.3,0,0,1-3.92,2.66,14.56,14.56,0,0,1-10.4,0,11.43,11.43,0,0,1-3.93-2.66,11.69,11.69,0,0,1-2.48-4,14.44,14.44,0,0,1-.86-5v-19h4.22v19a11.25,11.25,0,0,0,.55,3.61,7.88,7.88,0,0,0,1.62,2.81,7.33,7.33,0,0,0,2.6,1.85A8.71,8.71,0,0,0,270.73,201.62Z"/><path class="cls-1" d="M335.73,205H332a1.86,1.86,0,0,1-1.71-.9l-8.12-11.18a2.33,2.33,0,0,0-.8-.75,2.78,2.78,0,0,0-1.32-.23h-3.21V205h-4.21V173.7h8.84a19.32,19.32,0,0,1,5.13.6,9.91,9.91,0,0,1,3.57,1.73,7,7,0,0,1,2.09,2.74,9.19,9.19,0,0,1,.68,3.59,9.07,9.07,0,0,1-.53,3.11,8,8,0,0,1-1.52,2.58,9,9,0,0,1-2.42,2,12,12,0,0,1-3.24,1.22,4.3,4.3,0,0,1,1.4,1.33Zm-14.45-16.14a10.66,10.66,0,0,0,3.24-.45,6.72,6.72,0,0,0,2.36-1.26,5.31,5.31,0,0,0,1.43-2,6.38,6.38,0,0,0,.48-2.51,5,5,0,0,0-1.84-4.21,8.86,8.86,0,0,0-5.5-1.42h-4.63v11.81Z"/></g></g></svg>